<svg width="238" height="178" viewBox="0 0 238 178" fill="none" xmlns="http://www.w3.org/2000/svg">
<path fill-rule="evenodd" clip-rule="evenodd" d="M54.3794 156.796L82.5982 163.647L82.543 143.971L54.3794 156.796ZM107.459 111.159L106.209 164.264L76.0485 178L0 160.091L23.6692 149.313L37.3972 152.666L82.4388 132.156L82.3916 122.574L107.459 111.159ZM203.225 108.153C206.421 106.697 208.439 105.307 209.28 103.983C209.487 103.729 209.641 103.436 209.733 103.122C209.825 102.808 209.854 102.48 209.817 102.155C209.781 101.83 209.68 101.516 209.52 101.23C209.36 100.944 209.145 100.693 208.886 100.49L208.835 100.443C208.123 99.8852 207.307 99.4721 206.433 99.2275C205.56 98.9829 204.647 98.9117 203.745 99.018C200.932 99.2538 198.191 100.023 195.67 101.283L160.416 117.337L167.971 124.205L203.225 108.153ZM182.239 95.7482C187.897 93.1721 191.357 90.8671 192.619 88.8333C193.881 86.7994 193.321 84.7005 190.94 82.5365L186.489 78.4903C185.353 77.4551 184.909 76.551 185.156 75.7779L208.825 65L209.084 65.2359C209.116 66.5379 210.219 68.1772 212.392 70.1541L218.033 75.2822C220.344 77.3838 220.943 79.7233 219.831 82.3006C218.719 84.878 216.375 87.3578 212.799 89.7401C214.504 89.2921 216.22 88.9222 217.95 88.6302C219.902 88.3133 221.869 88.1009 223.845 87.9942C225.957 87.8523 228.078 88.054 230.125 88.5914C231.939 89.0327 233.618 89.9039 235.019 91.1306L235.64 91.695C242.296 97.7482 234.873 105.671 213.369 115.465L153.447 142.75L114.949 107.745L138.219 97.1496L151.879 109.57L182.239 95.7482Z" fill="url(#paint0_linear_820_3)"/>
<path d="M38.3291 112.58L37.9537 113.51L38.8663 113.093L67.0663 100.206L67.4958 100.01L67.2315 99.6184L52.8315 78.2984L52.4105 77.6751L52.129 78.3726L38.3291 112.58ZM30.2338 132.957L30.0885 133.024L30.0289 133.172L23.3885 149.686L0.754512 160.029L37.91 69.5294L67.665 55.9328L106.994 111.481L82.6424 122.607L75.8318 112.489L75.6424 112.207L75.3337 112.348L30.2338 132.957ZM183.5 26.9512V26.9433V26.8433C183.5 25.7315 183.301 24.7801 182.875 24.0121C182.445 23.2373 181.799 22.6736 180.953 22.3245C180.091 21.9691 179.032 21.9219 177.806 22.1368C176.577 22.352 175.152 22.8352 173.534 23.5745L138.234 39.7055L138 39.8123V40.0693V54.6693V55.2919L138.566 55.0331L173.86 38.9051C176.66 37.7435 179.132 35.912 181.059 33.5715L181.059 33.5709C182.593 31.7007 183.452 29.3691 183.5 26.9512ZM193.355 34.4262L193.678 35.1346C197.744 34.3227 201.011 34.7803 203.53 36.4384C206.008 38.0696 207.3 41.0113 207.3 45.4043V56.3043C207.3 58.4173 207.417 60.196 207.655 61.6351C207.882 63.0069 208.224 64.0986 208.7 64.8795V65.0073L185.483 75.6165C185.278 75.3757 185.098 75.0122 184.962 74.4929C184.791 73.8384 184.7 72.9758 184.7 71.8943V63.2943C184.7 58.6709 183.532 55.63 180.958 54.5266C179.684 53.9808 178.007 53.9436 175.972 54.3479C173.93 54.7536 171.482 55.6129 168.634 56.9145L138.234 70.8024L138 70.9092V71.1663V97.3093L115.5 107.592V34.0713L175.266 6.7601C186.028 1.84237 194.01 -0.191871 199.269 0.547396C201.879 0.914239 203.792 1.95997 205.061 3.65478C206.337 5.35887 207 7.7699 207 10.9363V12.1344C206.989 14.6137 206.523 17.07 205.627 19.3817L205.625 19.3862C204.747 21.7352 203.502 23.9302 201.937 25.8896L201.936 25.8911C200.582 27.6033 199.124 29.2307 197.57 30.7642C196.234 32.0619 194.827 33.2845 193.355 34.4262Z" stroke="url(#paint1_linear_820_3)" stroke-width="0.8"/>
<defs>
<linearGradient id="paint0_linear_820_3" x1="119.301" y1="106.517" x2="168.43" y2="181.991" gradientUnits="userSpaceOnUse">
<stop stop-color="#2A2A32"/>
<stop offset="1" stop-color="#2A2A32" stop-opacity="0"/>
</linearGradient>
<linearGradient id="paint1_linear_820_3" x1="241.5" y1="-2.88809e-06" x2="-27" y2="123" gradientUnits="userSpaceOnUse">
<stop stop-color="#C0421C"/>
<stop offset="0.494792" stop-color="#526DA2"/>
<stop offset="0.989583" stop-color="#1F283E"/>
</linearGradient>
</defs>
</svg>
