<?xml version="1.0" encoding="UTF-8"?>
<svg version="1.1" xmlns="http://www.w3.org/2000/svg" width="200" height="200">
<path d="M0 0 C1.28519531 -0.01160156 2.57039063 -0.02320313 3.89453125 -0.03515625 C16.03151888 0.00143768 27.58974663 1.75502421 38.875 6.375 C39.514375 6.6225 40.15375 6.87 40.8125 7.125 C42.6484375 7.875 42.6484375 7.875 45.5 9.375 C45.83 10.365 46.16 11.355 46.5 12.375 C47.304375 12.6225 48.10875 12.87 48.9375 13.125 C56.18875956 15.6693016 62.33191803 20.76393958 67.5 26.375 C68.6446875 27.426875 68.6446875 27.426875 69.8125 28.5 C80.59588509 40.03571429 80.59588509 40.03571429 81.5 47.375 C82.49 47.705 83.48 48.035 84.5 48.375 C85.67209376 50.71322266 86.64529483 52.9387651 87.5625 55.375 C87.82562988 56.05618896 88.08875977 56.73737793 88.35986328 57.43920898 C90.96333462 64.33243526 92.88319446 70.90270794 92.5 78.375 C93.16 78.375 93.82 78.375 94.5 78.375 C94.5 88.605 94.5 98.835 94.5 109.375 C93.84 109.375 93.18 109.375 92.5 109.375 C92.44392578 110.28378906 92.44392578 110.28378906 92.38671875 111.2109375 C91.88463352 117.61006294 90.61667657 123.32335641 88.5 129.375 C88.01466797 130.76912109 88.01466797 130.76912109 87.51953125 132.19140625 C85.58680931 137.39716689 85.58680931 137.39716689 84.5 139.375 C83.51 139.705 82.52 140.035 81.5 140.375 C81.12875 141.5815625 81.12875 141.5815625 80.75 142.8125 C78.2056984 150.06375956 73.11106042 156.20691803 67.5 161.375 C66.79875 162.138125 66.0975 162.90125 65.375 163.6875 C53.83928571 174.47088509 53.83928571 174.47088509 46.5 175.375 C46.17 176.365 45.84 177.355 45.5 178.375 C43.16177734 179.54709376 40.9362349 180.52029483 38.5 181.4375 C37.81881104 181.70062988 37.13762207 181.96375977 36.43579102 182.23486328 C29.54256474 184.83833462 22.97229206 186.75819446 15.5 186.375 C15.5 187.035 15.5 187.695 15.5 188.375 C5.27 188.375 -4.96 188.375 -15.5 188.375 C-15.5 187.715 -15.5 187.055 -15.5 186.375 C-16.10585937 186.33761719 -16.71171875 186.30023438 -17.3359375 186.26171875 C-23.73506294 185.75963352 -29.44835641 184.49167657 -35.5 182.375 C-36.89412109 181.88966797 -36.89412109 181.88966797 -38.31640625 181.39453125 C-43.52216689 179.46180931 -43.52216689 179.46180931 -45.5 178.375 C-45.83 177.385 -46.16 176.395 -46.5 175.375 C-47.7065625 175.00375 -47.7065625 175.00375 -48.9375 174.625 C-56.18875956 172.0806984 -62.33191803 166.98606042 -67.5 161.375 C-68.263125 160.67375 -69.02625 159.9725 -69.8125 159.25 C-80.59588509 147.71428571 -80.59588509 147.71428571 -81.5 140.375 C-82.49 140.045 -83.48 139.715 -84.5 139.375 C-85.66448261 137.16127004 -86.60187478 135.07015681 -87.5 132.75 C-88.2425 130.93628906 -88.2425 130.93628906 -89 129.0859375 C-92.99562403 117.50785863 -93.98491385 106.05101246 -93.875 93.875 C-93.88660156 92.58980469 -93.89820312 91.30460937 -93.91015625 89.98046875 C-93.87356232 77.84348112 -92.11997579 66.28525337 -87.5 55 C-87.2525 54.360625 -87.005 53.72125 -86.75 53.0625 C-86 51.2265625 -86 51.2265625 -84.5 48.375 C-83.015 47.88 -83.015 47.88 -81.5 47.375 C-81.12875 46.1684375 -81.12875 46.1684375 -80.75 44.9375 C-78.2056984 37.68624044 -73.11106042 31.54308197 -67.5 26.375 C-66.79875 25.611875 -66.0975 24.84875 -65.375 24.0625 C-53.83928571 13.27911491 -53.83928571 13.27911491 -46.5 12.375 C-46.17 11.385 -45.84 10.395 -45.5 9.375 C-43.28627004 8.21051739 -41.19515681 7.27312522 -38.875 6.375 C-37.66585937 5.88 -36.45671875 5.385 -35.2109375 4.875 C-23.63285863 0.87937597 -12.17601246 -0.10991385 0 0 Z M-29.5 10.375 C-29.5 11.035 -29.5 11.695 -29.5 12.375 C-30.139375 12.4575 -30.77875 12.54 -31.4375 12.625 C-35.72097713 13.67401481 -39.5203587 15.501446 -43.5 17.375 C-44.22058594 17.69726562 -44.94117188 18.01953125 -45.68359375 18.3515625 C-50.13024867 20.41938312 -53.17797849 22.67331889 -56.5 26.375 C-58.18120223 28.19069841 -59.22626282 29.25523999 -61.5 30.25 C-64.21496961 31.77717041 -64.99311517 33.67516468 -66.5 36.375 C-70.1 41.175 -70.1 41.175 -72.5 42.375 C-73.73972816 44.6088498 -74.88897956 46.82858117 -76 49.125 C-76.30808594 49.74632812 -76.61617187 50.36765625 -76.93359375 51.0078125 C-80.29860604 57.41184131 -80.29860604 57.41184131 -81.5 64.375 C-82.16 64.375 -82.82 64.375 -83.5 64.375 C-89.4937603 83.82796313 -89.4937603 103.92203687 -83.5 123.375 C-82.84 123.375 -82.18 123.375 -81.5 123.375 C-81.4175 124.014375 -81.335 124.65375 -81.25 125.3125 C-80.20098519 129.59597713 -78.373554 133.3953587 -76.5 137.375 C-76.01660156 138.45587891 -76.01660156 138.45587891 -75.5234375 139.55859375 C-73.45561688 144.00524867 -71.20168111 147.05297849 -67.5 150.375 C-65.68430159 152.05620223 -64.61976001 153.10126282 -63.625 155.375 C-62.09782959 158.08996961 -60.19983532 158.86811517 -57.5 160.375 C-52.7 163.975 -52.7 163.975 -51.5 166.375 C-49.2661502 167.61472816 -47.04641883 168.76397956 -44.75 169.875 C-44.12867188 170.18308594 -43.50734375 170.49117187 -42.8671875 170.80859375 C-36.46315869 174.17360604 -36.46315869 174.17360604 -29.5 175.375 C-29.5 176.035 -29.5 176.695 -29.5 177.375 C-10.04703687 183.3687603 10.04703687 183.3687603 29.5 177.375 C29.5 176.715 29.5 176.055 29.5 175.375 C30.139375 175.2925 30.77875 175.21 31.4375 175.125 C35.72097713 174.07598519 39.5203587 172.248554 43.5 170.375 C44.58087891 169.89160156 44.58087891 169.89160156 45.68359375 169.3984375 C50.13024867 167.33061688 53.17797849 165.07668111 56.5 161.375 C58.18120223 159.55930159 59.22626282 158.49476001 61.5 157.5 C64.21496961 155.97282959 64.99311517 154.07483532 66.5 151.375 C70.1 146.575 70.1 146.575 72.5 145.375 C73.73972816 143.1411502 74.88897956 140.92141883 76 138.625 C76.30808594 138.00367188 76.61617187 137.38234375 76.93359375 136.7421875 C80.29860604 130.33815869 80.29860604 130.33815869 81.5 123.375 C82.16 123.375 82.82 123.375 83.5 123.375 C89.4937603 103.92203687 89.4937603 83.82796313 83.5 64.375 C82.84 64.375 82.18 64.375 81.5 64.375 C81.4175 63.735625 81.335 63.09625 81.25 62.4375 C80.20098519 58.15402287 78.373554 54.3546413 76.5 50.375 C76.17773438 49.65441406 75.85546875 48.93382812 75.5234375 48.19140625 C73.45561688 43.74475133 71.20168111 40.69702151 67.5 37.375 C65.68430159 35.69379777 64.61976001 34.64873718 63.625 32.375 C62.09782959 29.66003039 60.19983532 28.88188483 57.5 27.375 C52.7 23.775 52.7 23.775 51.5 21.375 C49.2661502 20.13527184 47.04641883 18.98602044 44.75 17.875 C44.12867188 17.56691406 43.50734375 17.25882813 42.8671875 16.94140625 C36.46315869 13.57639396 36.46315869 13.57639396 29.5 12.375 C29.5 11.715 29.5 11.055 29.5 10.375 C10.04703687 4.3812397 -10.04703687 4.3812397 -29.5 10.375 Z " fill="#FFFFFF" transform="translate(99.5,5.625)"/>
<path d="M0 0 C1.5949466 0.72497573 3.18297876 1.46648938 4.75 2.25 C4.75 2.91 4.75 3.57 4.75 4.25 C5.86375 4.37375 6.9775 4.4975 8.125 4.625 C11.75 5.25 11.75 5.25 13.75 7.25 C14.37801448 10.86208583 14.44911469 14.52862268 14.625 18.1875 C14.73328125 19.71020508 14.73328125 19.71020508 14.84375 21.26367188 C14.89273438 22.23755859 14.94171875 23.21144531 14.9921875 24.21484375 C15.0422998 25.1080835 15.09241211 26.00132324 15.14404297 26.92163086 C14.75 29.25 14.75 29.25 12.93579102 30.96166992 C9.97808849 32.70497342 6.93027163 34.19636935 3.8125 35.625 C3.14935791 35.93244141 2.48621582 36.23988281 1.80297852 36.55664062 C-2.34741695 38.45520997 -6.53155829 40.16173907 -10.8125 41.75 C-15.509817 43.49850989 -19.98018368 45.52904371 -24.4375 47.8125 C-29.08177427 50.19090037 -33.68932389 52.29517816 -38.55859375 54.15625 C-42.01598848 55.56128705 -45.37866431 57.15267778 -48.75 58.75 C-53.62624574 61.05805344 -58.5226746 63.19605052 -63.5546875 65.140625 C-69.55421405 67.60999535 -75.39025548 70.4685746 -81.25 73.25 C-80.4559375 73.73210937 -79.661875 74.21421875 -78.84375 74.7109375 C-77.8228125 75.34257812 -76.801875 75.97421875 -75.75 76.625 C-74.7290625 77.25148438 -73.708125 77.87796875 -72.65625 78.5234375 C-71.46515625 79.37808594 -71.46515625 79.37808594 -70.25 80.25 C-70.25 80.91 -70.25 81.57 -70.25 82.25 C-73.88119708 84.94411396 -77.78565224 86.1611829 -82.046875 87.48046875 C-84.48884478 88.25926775 -84.48884478 88.25926775 -87.4375 90.0625 C-90.25 91.25 -90.25 91.25 -93.3125 90.625 C-96.09181458 89.32404424 -98.62152927 87.82708244 -101.25 86.25 C-103.23 85.59 -105.21 84.93 -107.25 84.25 C-107.25 76.66 -107.25 69.07 -107.25 61.25 C-98.5728728 56.40101715 -90.13628174 52.28705494 -80.82495117 48.8347168 C-74.89898871 46.60107006 -69.56585346 43.83837779 -64.04296875 40.73046875 C-61.03091903 39.13387177 -58.13914677 38.14940108 -54.88671875 37.1875 C-50.28802408 35.55240856 -45.94742516 33.33697828 -41.55102539 31.22729492 C-37.7203774 29.39535602 -33.90509784 27.64655451 -29.9375 26.125 C-20.42985471 22.7522698 -20.42985471 22.7522698 -12.25 17.25 C-13.11625 16.76789063 -13.9825 16.28578125 -14.875 15.7890625 C-15.98875 15.15742187 -17.1025 14.52578125 -18.25 13.875 C-19.36375 13.24851562 -20.4775 12.62203125 -21.625 11.9765625 C-22.49125 11.40679687 -23.3575 10.83703125 -24.25 10.25 C-24.25 9.59 -24.25 8.93 -24.25 8.25 C-20.0664828 5.99733689 -15.92987257 4.43280765 -11.41796875 3.01953125 C-9.00737371 2.23509548 -9.00737371 2.23509548 -6.0625 0.4375 C-3.25 -0.75 -3.25 -0.75 0 0 Z " fill="#FFFFFF" transform="translate(146.25,54.75)"/>
<path d="M0 0 C3.28025393 1.12885862 6.38885696 2.61255462 9.51953125 4.1015625 C10.3700708 4.50584473 11.22061035 4.91012695 12.09692383 5.32666016 C13.44113403 5.96933838 13.44113403 5.96933838 14.8125 6.625 C15.73506592 7.06505371 16.65763184 7.50510742 17.6081543 7.95849609 C25.78893257 11.87346687 33.90907553 15.90303966 42 20 C42 20.66 42 21.32 42 22 C39.48743702 23.35129438 36.96682058 24.68074204 34.4375 26 C33.73302734 26.3815625 33.02855469 26.763125 32.30273438 27.15625 C27.70221711 29.53071052 24.28023917 30.80146487 19 30 C16.02209969 28.74839295 13.31796983 27.17796805 10.5625 25.5 C8.066875 24.015 5.57125 22.53 3 21 C2.67 27.27 2.34 33.54 2 40 C0.14375 40.763125 -1.7125 41.52625 -3.625 42.3125 C-7.0138594 43.71919635 -10.3688565 45.11930538 -13.625 46.8125 C-16 48 -16 48 -18 48 C-18 35.13 -18 22.26 -18 9 C-12 6 -6 3 0 0 Z " fill="#FFFFFF" transform="translate(57,53)"/>
<path d="M0 0 C0 12.87 0 25.74 0 39 C-16 47 -16 47 -20 48 C-22.48168553 46.99830148 -24.71491185 45.94428087 -27.0625 44.6875 C-28.09467651 44.15358643 -28.09467651 44.15358643 -29.14770508 43.60888672 C-31.43899253 42.41914536 -33.7199031 41.21103877 -36 40 C-38.55539635 38.65112637 -41.11139888 37.30341026 -43.66772461 35.95629883 C-45.31908681 35.08381767 -46.96842233 34.20748728 -48.61547852 33.3269043 C-52.34958217 31.33968489 -56.01644701 29.45291913 -60 28 C-60 27.34 -60 26.68 -60 26 C-57.46543163 24.65144106 -54.92375848 23.32124783 -52.375 22 C-51.66214844 21.6184375 -50.94929688 21.236875 -50.21484375 20.84375 C-46.01031368 18.68362446 -42.8157045 17.15238578 -38 18 C-35.09039501 19.26063417 -32.40443526 20.80832772 -29.6875 22.4375 C-28.95982422 22.85837891 -28.23214844 23.27925781 -27.48242188 23.71289062 C-22.22445243 26.77554757 -22.22445243 26.77554757 -21 28 C-20.67 21.4 -20.34 14.8 -20 8 C-18.515 7.4225 -17.03 6.845 -15.5 6.25 C-12.07867724 4.88924663 -8.77355417 3.43491759 -5.5 1.75 C-2 0 -2 0 0 0 Z " fill="#FFFFFF" transform="translate(161,99)"/>
<path d="M0 0 C2.73605867 0.97716381 5.12385592 2.26437045 7.5859375 3.8046875 C9.89438601 5.08715889 12.2935834 6.0594328 14.72558594 7.08105469 C17.96295721 8.54078456 21.00024412 10.33301322 24.0625 12.125 C24.69865234 12.49302734 25.33480469 12.86105469 25.99023438 13.24023438 C27.53718085 14.13583496 29.08138662 15.0361668 30.625 15.9375 C24.72442053 20.74423837 17.08141846 25.21986385 9.625 26.9375 C6.1440811 26.16669581 3.91575639 24.94915607 0.91796875 23.0625 C-1.27759838 21.66952285 -1.27759838 21.66952285 -3.38671875 22.5 C-5.07251014 23.61167154 -6.72526974 24.77298452 -8.375 25.9375 C-13.77256573 25.72474923 -18.06494802 23.32766284 -22.75 20.875 C-23.48605469 20.49794922 -24.22210938 20.12089844 -24.98046875 19.73242188 C-26.78239646 18.80805636 -28.57923099 17.87377386 -30.375 16.9375 C-30.375 16.2775 -30.375 15.6175 -30.375 14.9375 C-24.51832953 10.5825399 -17.99754983 6.78921135 -11.125 4.3125 C-7.43100955 3.11674198 -7.43100955 3.11674198 -4.6875 1.1875 C-2.375 -0.0625 -2.375 -0.0625 0 0 Z " fill="#FFFFFF" transform="translate(100.375,32.0625)"/>
<path d="M0 0 C2.49151956 1.14618029 4.93562082 2.37220819 7.375 3.625 C8.33599609 4.11226562 8.33599609 4.11226562 9.31640625 4.609375 C10.87947501 5.40257407 12.44000622 6.20077031 14 7 C14 7.66 14 8.32 14 9 C11.3365406 10.44371606 8.6695008 11.88003077 6 13.3125 C5.25621094 13.71662109 4.51242188 14.12074219 3.74609375 14.53710938 C0.0930863 16.49067423 -3.50294267 18.26003747 -7.3984375 19.6796875 C-10.97307515 20.81973594 -10.97307515 20.81973594 -13.625 22.8125 C-16 24 -16 24 -19 23.375 C-21.81494565 22.08481658 -24.34848028 20.59091183 -27 19 C-27.87914063 18.72414062 -28.75828125 18.44828125 -29.6640625 18.1640625 C-33.64788017 16.77392472 -37.18402043 14.89931631 -40.875 12.875 C-41.56335938 12.50246094 -42.25171875 12.12992188 -42.9609375 11.74609375 C-44.64294798 10.83500474 -46.32180436 9.91809685 -48 9 C-48 8.34 -48 7.68 -48 7 C-47.13117188 6.67386719 -46.26234375 6.34773437 -45.3671875 6.01171875 C-44.21476562 5.57472656 -43.06234375 5.13773438 -41.875 4.6875 C-40.73804687 4.25824219 -39.60109375 3.82898438 -38.4296875 3.38671875 C-34.98420416 2.05558057 -34.98420416 2.05558057 -31.76171875 0.32421875 C-28.2789909 -1.34571723 -26.66471838 -1.09161824 -23 0 C-22.175 0.556875 -21.35 1.11375 -20.5 1.6875 C-18.01711585 3.33060409 -18.01711585 3.33060409 -15.0625 2.375 C-11.95521717 1.04482471 -11.95521717 1.04482471 -9 -0.75 C-5.06666274 -2.38889052 -3.90923928 -1.55809775 0 0 Z " fill="#FFFFFF" transform="translate(117,144)"/>
</svg>
