<?xml version="1.0" encoding="UTF-8"?>
<svg version="1.1" xmlns="http://www.w3.org/2000/svg" width="736" height="736">
<path d="M0 0 C0.66 0 1.32 0 2 0 C3.68493737 2.17699873 5.26194625 4.35511719 6.8125 6.625 C9.36080423 10.31830628 11.8913936 13.9348114 14.82421875 17.3359375 C17 20 17 20 17 22 C17.58394531 22.24878906 18.16789062 22.49757812 18.76953125 22.75390625 C21.31316284 24.17495437 22.79407698 25.73192915 24.6875 27.9375 C25.28949219 28.62714844 25.89148438 29.31679687 26.51171875 30.02734375 C28 32 28 32 29 35 C28.16476973 37.07631186 27.23027588 39.11310046 26.25 41.125 C19.89592556 55.15198874 18.2648359 69.83858892 22.82421875 84.68359375 C23.74057411 86.91455174 24.77153525 88.92570705 26 91 C26.44472656 91.75667969 26.88945312 92.51335937 27.34765625 93.29296875 C32.25214956 101.10092211 37.77195933 106.80202007 46 111 C46 111.66 46 112.32 46 113 C46.73347656 113.12503906 47.46695313 113.25007813 48.22265625 113.37890625 C50.86944561 113.97080429 52.98223555 114.80986555 55.4375 115.9375 C61.77522922 118.55216856 68.23181821 119.23536201 75 120 C77.66731945 120.32825827 80.3335769 120.66450913 83 121 C83.86089468 143.25644429 83.86089468 143.25644429 79.33349609 149.18066406 C74.8079417 152.95574964 69.55066403 155.15504994 64 157 C62.24429688 157.60328125 62.24429688 157.60328125 60.453125 158.21875 C59.64359375 158.4765625 58.8340625 158.734375 58 159 C58 159.66 58 160.32 58 161 C57.47535156 161.24492187 56.95070313 161.48984375 56.41015625 161.7421875 C49.67194047 164.99357282 43.27801687 168.72397094 36.89086914 172.60888672 C36.18696045 173.03186035 35.48305176 173.45483398 34.7578125 173.890625 C34.1302002 174.27250977 33.50258789 174.65439453 32.85595703 175.04785156 C30.91939574 176.04135183 29.12459672 176.55686143 27 177 C27 177.66 27 178.32 27 179 C28.0828125 179.1546875 28.0828125 179.1546875 29.1875 179.3125 C32.25958758 180.06345474 34.36003721 181.2875917 37 183 C37.66 183.33 38.32 183.66 39 184 C39 184.66 39 185.32 39 186 C39.64839844 186.061875 40.29679687 186.12375 40.96484375 186.1875 C45.30575829 187.34954662 48.76055649 189.65030101 52.5625 192 C54.06094371 192.92133174 55.56215902 193.83817437 57.06640625 194.75 C57.72584229 195.15734375 58.38527832 195.5646875 59.06469727 195.984375 C61.03660108 197.01920783 62.82549907 197.55450726 65 198 C65 198.66 65 199.32 65 200 C66.299375 200.37125 66.299375 200.37125 67.625 200.75 C71.21060064 202.07800024 73.96327987 203.68630848 77 206 C77 206.66 77 207.32 77 208 C77.99 208.33 78.98 208.66 80 209 C80 209.66 80 210.32 80 211 C80.99 211.33 81.98 211.66 83 212 C83 212.66 83 213.32 83 214 C83.99 214.33 84.98 214.66 86 215 C88.38122757 217.66137199 89.8655859 219.5967577 91 223 C91.66 223.33 92.32 223.66 93 224 C97.64413898 231.35075501 101.27795543 239.4437543 105.125 247.23828125 C106.17556424 249.36295325 107.24730843 251.45738007 108.375 253.54296875 C112.23448237 260.71601987 114.67309778 268.38439155 117.296875 276.0703125 C118.69233286 280.14898296 120.18168838 284.17224435 121.75 288.1875 C125.90481002 298.83250345 129.09718424 309.74514796 132.19433594 320.73754883 C134.33484759 328.33411497 136.50901523 335.88734571 139.140625 343.33203125 C140.04272663 346.13264677 140.75432626 348.95897799 141.45117188 351.81665039 C142.02386086 354.09492332 142.64802104 356.35332646 143.2890625 358.61328125 C143.50820313 359.38607422 143.72734375 360.15886719 143.953125 360.95507812 C144.40677727 362.54681735 144.86255905 364.13795097 145.3203125 365.72851562 C145.536875 366.49486328 145.7534375 367.26121094 145.9765625 368.05078125 C146.17330566 368.73825439 146.37004883 369.42572754 146.57275391 370.1340332 C147 372 147 372 147 375 C147.66 375 148.32 375 149 375 C149.07347656 374.09507812 149.07347656 374.09507812 149.1484375 373.171875 C149.22320312 372.37265625 149.29796875 371.5734375 149.375 370.75 C149.44460938 369.96109375 149.51421875 369.1721875 149.5859375 368.359375 C150.01873488 365.89324652 150.83539636 364.19930918 152 362 C152.46819074 360.16067925 152.93209198 358.32008562 153.3671875 356.47265625 C154.41449842 352.38038579 155.72445851 348.36967784 157 344.34375 C157.90674809 341.31181107 158.69256772 338.26872122 159.44628906 335.19580078 C162.36274644 323.63027273 165.67582221 312.11931431 170 301 C172.12041625 295.35668745 174.10716593 289.72112236 175.8125 283.9375 C181.21305611 266.1536375 188.87604352 249.16745036 198 233 C198.95903111 231.27122024 199.91741054 229.54207872 200.875 227.8125 C201.5828878 226.54141844 202.29103897 225.27048327 203 224 C203.66 224 204.32 224 205 224 C205.2475 223.278125 205.495 222.55625 205.75 221.8125 C207.12269592 218.72393418 208.72353296 216.48988582 211 214 C211.66 214 212.32 214 213 214 C213 213.01 213 212.02 213 211 C216.33333333 208 216.33333333 208 219 208 C219 207.34 219 206.68 219 206 C222.51858133 202.74505877 226.15409462 200.44053685 231 200 C231 199.34 231 198.68 231 198 C231.639375 197.773125 232.27875 197.54625 232.9375 197.3125 C237.14056757 195.51118533 241.02556148 193.25561586 245 191 C246.29784343 190.27023963 247.59604865 189.54112247 248.89453125 188.8125 C255.27589017 185.23051428 261.64976954 181.63695017 268 178 C260.83293261 173.31437374 253.55305574 169.02904459 246 165 C240.93884495 162.2520471 235.97892325 159.40937324 231.11328125 156.328125 C228.6748151 154.79563241 226.21610164 153.3001045 223.75 151.8125 C222.94046875 151.32394531 222.1309375 150.83539063 221.296875 150.33203125 C219.08727302 148.97458123 219.08727302 148.97458123 216.90820312 148.17333984 C215 147 215 147 214.36230469 145.13989258 C214.29946289 144.39892334 214.23662109 143.6579541 214.171875 142.89453125 C214.09453125 142.07533203 214.0171875 141.25613281 213.9375 140.41210938 C213.8446875 139.12530273 213.8446875 139.12530273 213.75 137.8125 C213.67265625 136.97396484 213.5953125 136.13542969 213.515625 135.27148438 C213.09841986 130.49970063 212.92224437 125.78845085 213 121 C214.16015625 120.90203125 215.3203125 120.8040625 216.515625 120.703125 C235.6282078 118.94119018 251.48787101 113.3310459 265 99 C274.95605755 86.64438523 276.09526665 72.58658893 274.76171875 57.26171875 C273.75675603 51.2217913 271.39519335 45.7162709 268.85693359 40.17553711 C266.84637807 35.57089231 266.84637807 35.57089231 267.578125 32.8515625 C269.32193073 30.58078252 271.09701397 28.39085928 273 26.25 C273.70125 25.45078125 274.4025 24.6515625 275.125 23.828125 C277 22 277 22 279 22 C279 21.01 279 20.02 279 19 C280.64585433 17.3127777 282.31711953 15.65029357 284 14 C286.30361794 11.00504062 288.39319465 7.85848624 290.51367188 4.73242188 C291.62982048 3.12210061 292.80996917 1.5565182 294 0 C294.66 0 295.32 0 296 0 C310.41528165 28.77668878 318.19531916 55.79139512 318.37890625 88.0546875 C318.39518844 89.65049144 318.41237826 91.24628634 318.43040466 92.84207153 C318.4755723 97.01397288 318.51056278 101.18588971 318.54260254 105.35791016 C317.96618509 152.91248536 317.96618509 152.91248536 322.25 200.125 C322.47225991 201.5644388 322.69333861 203.00406042 322.91333008 204.44384766 C325.8581617 226.14344851 325.8581617 226.14344851 332 247 C332.50228784 248.94863473 333.00260107 250.89794951 333.47314453 252.85449219 C334.36176404 256.47320778 335.39825616 260.04716982 336.4375 263.625 C336.64181641 264.34945313 336.84613281 265.07390625 337.05664062 265.8203125 C338.3176347 270.15718933 339.92940996 273.96925138 342 278 C342.68517137 279.99373635 343.34937752 281.99472325 344 284 C345.20811167 287.22504386 346.47535842 290.42574601 347.75 293.625 C348.10126953 294.50784668 348.45253906 295.39069336 348.81445312 296.30029297 C351.24860149 302.33596485 353.90823496 308.13620713 356.96875 313.8828125 C358 316 358 316 358 318 C355.50638429 316.79618552 353.31856917 315.54571278 351 314 C351 313.34 351 312.68 351 312 C350.46890625 311.7628125 349.9378125 311.525625 349.390625 311.28125 C346.30257405 309.62621616 343.5471528 307.59451872 340.75 305.5 C340.19570313 305.09652344 339.64140625 304.69304687 339.0703125 304.27734375 C337.67430835 303.23549829 336.33197608 302.12254588 335 301 C335 300.34 335 299.68 335 299 C334.01 299 333.02 299 332 299 C330.82379887 297.85740461 329.65500358 296.70542563 328.5390625 295.50390625 C326.11642642 293.13660957 323.34326258 291.27189744 320.57421875 289.33203125 C320.05472656 288.89246094 319.53523438 288.45289063 319 288 C319 287.34 319 286.68 319 286 C318.01 286 317.02 286 316 286 C314.31002677 284.35697047 312.64783606 282.68528688 311 281 C309.74525572 280.08176718 308.47396498 279.18573684 307.1875 278.3125 C305.6096875 277.1678125 305.6096875 277.1678125 304 276 C304 275.34 304 274.68 304 274 C302.06610869 274.26707929 302.06610869 274.26707929 300 275 C298.35603127 277.35860988 296.94560586 279.62155451 295.5625 282.125 C292.94287589 286.75163106 290.23855117 291.16389016 287.1003418 295.45898438 C285.78766524 297.29737231 284.68390454 299.19309709 283.625 301.1875 C281.54942964 304.99600689 279.45542575 308.79130562 277.3125 312.5625 C276.44044922 314.11130859 276.44044922 314.11130859 275.55078125 315.69140625 C275.03902344 316.45324219 274.52726562 317.21507812 274 318 C273.34 318 272.68 318 272 318 C271.87544434 318.58571777 271.75088867 319.17143555 271.62255859 319.77490234 C270.60518407 323.41111858 268.56923166 326.41332618 266.625 329.625 C266.22539062 330.305625 265.82578125 330.98625 265.4140625 331.6875 C265.0221875 332.33976562 264.6303125 332.99203125 264.2265625 333.6640625 C263.87158691 334.25654785 263.51661133 334.8490332 263.15087891 335.45947266 C262 337 262 337 259 339 C255.12452876 335.84554667 251.38940904 332.68847454 248 329 C248 328.34 248 327.68 248 327 C247.42894531 326.75765625 246.85789062 326.5153125 246.26953125 326.265625 C243.57645652 324.76380708 241.81860376 322.97573537 239.6875 320.75 C236.87442805 317.85775218 234.05250122 315.12667784 230.9375 312.5625 C229.968125 311.716875 228.99875 310.87125 228 310 C228 309.34 228 308.68 228 308 C227.01 307.67 226.02 307.34 225 307 C225 306.34 225 305.68 225 305 C224.01 305 223.02 305 222 305 C220.62131719 303.37064759 219.28725907 301.70250393 218 300 C217.34 299.67 216.68 299.34 216 299 C216 299.99 216 300.98 216 302 C215.34 302 214.68 302 214 302 C213.773125 302.845625 213.54625 303.69125 213.3125 304.5625 C212.02477911 307.93510232 210.55502435 310.16551917 208.40893555 313.00292969 C207.00958339 314.98641619 205.86024292 316.98620471 204.71484375 319.125 C201.50706024 324.97659392 197.89451758 330.54906052 194.28515625 336.15820312 C191.60752144 340.35090472 189.1112998 344.49346697 187 349 C186.34 349 185.68 349 185 349 C184.71125 349.9075 184.4225 350.815 184.125 351.75 C183.23468224 354.32202908 182.28505587 356.61346766 181 359 C180.34 359 179.68 359 179 359 C178.72929687 359.72445313 178.45859375 360.44890625 178.1796875 361.1953125 C177.02452549 363.94169106 175.68711271 366.3416255 174.125 368.875 C171.67858423 372.88040622 169.3093437 376.91423808 167 381 C166.34 381 165.68 381 165 381 C164.87326904 381.59151855 164.74653809 382.18303711 164.6159668 382.79248047 C163.65474474 386.23733575 161.67853819 389.10684325 159.8125 392.125 C158.99737882 393.46222921 158.18227471 394.79946883 157.3671875 396.13671875 C156.76535645 397.11777588 156.76535645 397.11777588 156.15136719 398.11865234 C154.56269417 400.71456291 152.99948773 403.32546789 151.4375 405.9375 C150.625 407.29166667 149.8125 408.64583333 149 410 C145.46914272 408.82304757 145.38594738 408.36397307 143.78125 405.19140625 C140.64286226 399.25407466 137.07864521 393.61727057 133.5 387.9375 C132.84902344 386.90044922 132.19804687 385.86339844 131.52734375 384.79492188 C130.57021484 383.2702832 130.57021484 383.2702832 129.59375 381.71484375 C128.98144531 380.73757324 128.36914062 379.76030273 127.73828125 378.75341797 C126.64420048 377.02040633 125.53895454 375.2943443 124.41796875 373.57861328 C121 368.31084947 121 368.31084947 121 365 C120.34 365 119.68 365 119 365 C118.34 363.02 117.68 361.04 117 359 C116.34 359 115.68 359 115 359 C114.70867187 358.46632813 114.41734375 357.93265625 114.1171875 357.3828125 C108.2340413 346.62537128 108.2340413 346.62537128 101.4375 336.4375 C99.09103237 333.23913011 97.20868107 329.87655419 95.31640625 326.39453125 C91.5997278 319.63392624 87.52710113 313.24005832 83 307 C80 302.44827586 80 302.44827586 80 299 C79.566875 299.495 79.13375 299.99 78.6875 300.5 C77 302 77 302 74 302 C73.67 302.99 73.34 303.98 73 305 C72.34 305 71.68 305 71 305 C70.67 305.99 70.34 306.98 70 308 C69.34 308 68.68 308 68 308 C67.79503906 308.54140625 67.59007812 309.0828125 67.37890625 309.640625 C65.45436851 312.93360176 62.75231035 315.23512191 59.9375 317.75 C59.35548828 318.27859619 58.77347656 318.80719238 58.17382812 319.35180664 C54.1024005 323.0411171 49.98986288 326.68452556 45.8671875 330.31640625 C44.23094542 331.79176261 42.66628921 333.3017906 41.125 334.875 C39 337 39 337 36 339 C33.06452226 335.48131476 30.6191952 331.89540869 28.3125 327.9375 C27.40951172 326.40416016 27.40951172 326.40416016 26.48828125 324.83984375 C25.25021361 322.47744171 24.46767719 320.60028518 24 318 C23.34 318 22.68 318 22 318 C21.34 316.02 20.68 314.04 20 312 C19.34 312 18.68 312 18 312 C16.66141476 309.71125827 15.32898986 307.41930344 14 305.125 C13.6184375 304.47402344 13.236875 303.82304688 12.84375 303.15234375 C10 298.2265625 10 298.2265625 10 296 C9.34 296 8.68 296 8 296 C7.32845067 294.71086513 6.66291141 293.41859796 6 292.125 C5.62875 291.40570313 5.2575 290.68640625 4.875 289.9453125 C4 288 4 288 4 286 C3.34 286 2.68 286 2 286 C1.51080078 285.07767578 1.51080078 285.07767578 1.01171875 284.13671875 C0.35623047 282.92435547 0.35623047 282.92435547 -0.3125 281.6875 C-0.74175781 280.88699219 -1.17101562 280.08648437 -1.61328125 279.26171875 C-2.91368914 277.1407718 -4.08886267 275.583221 -6 274 C-6.66 274 -7.32 274 -8 274 C-8 274.66 -8 275.32 -8 276 C-9.76494494 277.3956731 -11.58808217 278.71836522 -13.4375 280 C-17.32727075 282.45900384 -17.32727075 282.45900384 -20 286 C-20.99 286 -21.98 286 -23 286 C-23.33 286.99 -23.66 287.98 -24 289 C-26.11205447 290.82470012 -28.21001529 292.51748205 -30.4375 294.1875 C-31.03626953 294.65091797 -31.63503906 295.11433594 -32.25195312 295.59179688 C-36.73431747 299 -36.73431747 299 -39 299 C-39 299.66 -39 300.32 -39 301 C-41.06904965 302.77389278 -43.13761169 304.4284447 -45.3125 306.0625 C-45.90740234 306.52205078 -46.50230469 306.98160156 -47.11523438 307.45507812 C-49.72155134 309.43820869 -51.87210058 310.95736686 -55 312 C-55 312.66 -55 313.32 -55 314 C-58.465 315.98 -58.465 315.98 -62 318 C-59.46034929 310.16071288 -56.38692795 302.55342369 -52.5625 295.25 C-41.82672593 274.11289965 -36.0767649 249.99815772 -31 227 C-30.84047852 226.28779297 -30.68095703 225.57558594 -30.51660156 224.84179688 C-29.68939197 221.07750666 -29.01841709 217.30184277 -28.40698242 213.49731445 C-28.1256165 211.77080452 -27.83305579 210.04609523 -27.53149414 208.32299805 C-22.74664752 180.33559015 -23.20444437 152.05846603 -22.9375 123.75 C-22.85128415 115.02902119 -22.75249258 106.30836792 -22.63324165 97.58777618 C-22.59113516 94.15224322 -22.56600488 90.71688998 -22.54222107 87.28118896 C-22.37105117 71.14431845 -20.9251054 55.53954055 -16.5625 39.9375 C-16.23946899 38.75087769 -16.23946899 38.75087769 -15.90991211 37.5402832 C-14.32157803 31.83979158 -12.41230591 26.4063026 -10 21 C-9.26910156 19.25203125 -9.26910156 19.25203125 -8.5234375 17.46875 C-6.2822766 12.11934932 -4.08145996 6.93208181 -1 2 C-0.67 1.34 -0.34 0.68 0 0 Z " fill="#FBFBFB" transform="translate(220,209)"/>
<path d="M0 0 C1.1859375 0.02835937 2.371875 0.05671875 3.59375 0.0859375 C31.35294912 1.25182386 56.51618704 10.47845606 81 23 C81 23.66 81 24.32 81 25 C82.98 25.66 84.96 26.32 87 27 C87 27.66 87 28.32 87 29 C87.59603027 29.11988281 88.19206055 29.23976562 88.80615234 29.36328125 C92.29698748 30.3764237 94.83998081 32.75109795 97.625 35 C98.24528076 35.48895752 98.86556152 35.97791504 99.50463867 36.48168945 C103.32516161 39.52734855 106.83298509 42.75168387 110.3125 46.1875 C113.27592553 48.86662942 115.33046162 50.61914635 119.375 50.9375 C130.05634317 49.69635801 139.44137639 42.13077699 147 35 C147.55558594 34.24976563 148.11117188 33.49953125 148.68359375 32.7265625 C149.11800781 32.15679687 149.55242187 31.58703125 150 31 C150.66 31 151.32 31 152 31 C152.28875 30.360625 152.5775 29.72125 152.875 29.0625 C154 27 154 27 156 26 C155.13897082 34.39503454 150.94876676 41.3721715 146.5859375 48.42578125 C145.48092396 50.21938698 144.40481905 52.0309888 143.3515625 53.85546875 C142.82304688 54.76941406 142.29453125 55.68335938 141.75 56.625 C141.27046875 57.46289062 140.7909375 58.30078125 140.296875 59.1640625 C139.86890625 59.76992187 139.4409375 60.37578125 139 61 C138.34 61 137.68 61 137 61 C137 61.99 137 62.98 137 64 C136.34 64 135.68 64 135 64 C134.731875 64.7425 134.46375 65.485 134.1875 66.25 C133.04723249 68.89061949 131.90619694 70.85552844 130 73 C129.34 73 128.68 73 128 73 C127.72542969 73.59167969 127.45085937 74.18335938 127.16796875 74.79296875 C122.36191748 83.87463755 112.93752484 91.15984567 105.69628906 98.31787109 C104.18748031 99.81408473 102.69053055 101.32223587 101.1953125 102.83203125 C98.91899275 105.07999827 96.49668166 107.00265467 94 109 C93.113125 109.9075 92.22625 110.815 91.3125 111.75 C89 114 89 114 87 114 C87 114.66 87 115.32 87 116 C85.51879883 117.35693359 85.51879883 117.35693359 83.45703125 118.8984375 C82.71259766 119.46046875 81.96816406 120.0225 81.20117188 120.6015625 C80.41291016 121.18679687 79.62464844 121.77203125 78.8125 122.375 C77.2770219 123.52821742 75.74185793 124.68185323 74.20703125 125.8359375 C73.47693848 126.37959961 72.7468457 126.92326172 71.99462891 127.48339844 C70.33650938 128.74413754 68.72922771 130.07140146 67.13671875 131.4140625 C65 133 65 133 62 133 C61.67 133.99 61.34 134.98 61 136 C58.33916031 137.99396257 55.38757675 140 52 140 C52 140.66 52 141.32 52 142 C49.03 142.99 49.03 142.99 46 144 C46 144.66 46 145.32 46 146 C43.46080994 147.29673602 40.91885762 148.58747837 38.375 149.875 C37.66214844 150.23980469 36.94929687 150.60460937 36.21484375 150.98046875 C32.21248163 153.00000927 28.31082927 154.7081111 24 156 C24 156.66 24 157.32 24 158 C21.71648595 156.86916888 19.4515717 155.71203695 17.1953125 154.52734375 C16.18210937 154.00269531 15.16890625 153.47804688 14.125 152.9375 C13.11695313 152.41027344 12.10890625 151.88304687 11.0703125 151.33984375 C1.71803715 147.25863453 -12.45529358 147.54415802 -22 151 C-25.39310347 152.56165771 -28.70114986 154.24958972 -32 156 C-33.33151682 156.67028738 -34.66422471 157.33823977 -36 158 C-36 157.34 -36 156.68 -36 156 C-37.98 155.67 -39.96 155.34 -42 155 C-42 154.34 -42 153.68 -42 153 C-43.175625 152.6596875 -43.175625 152.6596875 -44.375 152.3125 C-49.12301625 150.59339067 -53.52102552 148.31915279 -58 146 C-58 145.34 -58 144.68 -58 144 C-59.98 143.34 -61.96 142.68 -64 142 C-64 141.34 -64 140.68 -64 140 C-64.7425 139.7215625 -65.485 139.443125 -66.25 139.15625 C-74.27706764 135.78123292 -81.07077477 129.72551087 -87.890625 124.40625 C-91.11126204 121.91389772 -94.38564763 119.5120355 -97.70703125 117.15625 C-98.34705078 116.58390625 -98.34705078 116.58390625 -99 116 C-99 115.34 -99 114.68 -99 114 C-99.5775 113.74089844 -100.155 113.48179687 -100.75 113.21484375 C-103.17293811 111.90662543 -104.96428504 110.41134269 -107 108.5625 C-109.03635624 106.72102941 -111.00980004 104.99304129 -113.25 103.40234375 C-113.8275 102.93957031 -114.405 102.47679687 -115 102 C-115 101.34 -115 100.68 -115 100 C-115.66 100 -116.32 100 -117 100 C-117 99.34 -117 98.68 -117 98 C-117.66 98 -118.32 98 -119 98 C-119 97.34 -119 96.68 -119 96 C-119.56976563 95.76667969 -120.13953125 95.53335938 -120.7265625 95.29296875 C-123.54773872 93.68848537 -125.24239143 91.75564631 -127.375 89.3125 C-128.15746094 88.42304688 -128.93992188 87.53359375 -129.74609375 86.6171875 C-131.65521834 84.40035306 -133.55004884 82.17276157 -135.4375 79.9375 C-137.66388997 77.00970985 -137.66388997 77.00970985 -140 76 C-140 75.01 -140 74.02 -140 73 C-141.485 72.505 -141.485 72.505 -143 72 C-156 56.8213628 -156 56.8213628 -156 51 C-156.66 51 -157.32 51 -158 51 C-158.4125 50.154375 -158.825 49.30875 -159.25 48.4375 C-160.43429838 46.11119962 -161.68724198 43.81880284 -163 41.5625 C-168.53765469 31.91420163 -168.53765469 31.91420163 -168 26 C-167.319375 26.680625 -166.63875 27.36125 -165.9375 28.0625 C-165.47601563 28.52011719 -165.01453125 28.97773438 -164.5390625 29.44921875 C-163.49728087 30.49893272 -162.47149377 31.56472367 -161.4609375 32.64453125 C-153.82297979 40.6625769 -142.9226129 49.39187132 -131.625 51 C-125.69578222 50.70459413 -121.73406639 45.78041745 -117.796875 41.796875 C-115.30512275 39.30512275 -112.85251481 37.06561417 -110 35 C-109.34 35 -108.68 35 -108 35 C-108 34.34 -108 33.68 -108 33 C-101.49749017 27.32154095 -93.64370621 23.63531486 -85.92236328 19.93554688 C-83.91189214 18.95712099 -81.92186885 17.94460552 -79.93359375 16.921875 C-54.87610807 4.05772635 -28.07178032 -0.77977168 0 0 Z " fill="#FCFCFC" transform="translate(374,117)"/>
<path d="M0 0 C3.32341678 0.00315039 6.64593116 -0.02036987 9.96923828 -0.0456543 C85.77763635 -0.2699188 161.43335246 30.36962823 216.25048828 82.72973633 C218.10041699 84.56933024 219.91600183 86.43426498 221.72314453 88.31567383 C224.30250814 90.91217607 226.8993144 93.48741485 229.52001953 96.04223633 C236.07639981 102.45301731 242.1079564 109.04785507 247.72314453 116.31567383 C248.17657227 116.89800781 248.63 117.4803418 249.09716797 118.08032227 C280.23032544 158.19779772 300.7265396 203.94911784 310.53564453 253.75317383 C310.73053467 254.73318359 310.9254248 255.71319336 311.1262207 256.72290039 C314.28590962 273.62841974 315.07267207 290.42243125 315.03881836 307.5925293 C315.03566797 310.91594607 315.05918822 314.23846046 315.08447266 317.56176758 C315.30873716 393.37016564 284.66919013 469.02588175 232.30908203 523.84301758 C230.46948812 525.69294629 228.60455337 527.50853112 226.72314453 529.31567383 C224.12664229 531.89503744 221.55140351 534.4918437 218.99658203 537.11254883 C212.58580105 543.6689291 205.99096329 549.70048569 198.72314453 555.31567383 C198.14081055 555.76910156 197.55847656 556.2225293 196.95849609 556.68969727 C156.84102064 587.82285473 111.08970052 608.31906889 61.28564453 618.12817383 C60.30563477 618.32306396 59.325625 618.5179541 58.31591797 618.71875 C41.41039862 621.87843891 24.61638711 622.66520136 7.44628906 622.63134766 C4.12287228 622.62819727 0.8003579 622.65171752 -2.52294922 622.67700195 C-78.33134728 622.90126645 -153.9870634 592.26171943 -208.80419922 539.90161133 C-210.65412793 538.06201741 -212.46971276 536.19708267 -214.27685547 534.31567383 C-216.85621908 531.71917159 -219.45302534 529.14393281 -222.07373047 526.58911133 C-228.63011074 520.17833035 -234.66166733 513.58349259 -240.27685547 506.31567383 C-240.7302832 505.73333984 -241.18371094 505.15100586 -241.65087891 504.55102539 C-272.78403637 464.43354994 -293.28025053 418.68222981 -303.08935547 368.87817383 C-303.28424561 367.89816406 -303.47913574 366.9181543 -303.67993164 365.90844727 C-306.83962055 349.00292792 -307.626383 332.2089164 -307.5925293 315.03881836 C-307.58937891 311.71540158 -307.61289916 308.3928872 -307.63818359 305.06958008 C-307.86244809 229.26118201 -277.22290107 153.6054659 -224.86279297 98.78833008 C-223.02319905 96.93840137 -221.15826431 95.12281653 -219.27685547 93.31567383 C-216.68035323 90.73631022 -214.10511445 88.13950396 -211.55029297 85.51879883 C-205.13951199 78.96241855 -198.54467423 72.93086196 -191.27685547 67.31567383 C-190.69452148 66.86224609 -190.1121875 66.40881836 -189.51220703 65.94165039 C-149.39473158 34.80849292 -103.64341145 14.31227876 -53.83935547 4.50317383 C-52.8593457 4.30828369 -51.87933594 4.11339355 -50.86962891 3.91259766 C-33.96410956 0.75290874 -17.17009804 -0.03385371 0 0 Z M-44.27685547 9.31567383 C-45.39930664 9.51966797 -46.52175781 9.72366211 -47.67822266 9.93383789 C-97.41829713 19.06814186 -144.48637223 38.81011315 -184.27685547 70.31567383 C-185.26943359 71.09555664 -186.26201172 71.87543945 -187.28466797 72.67895508 C-193.24106621 77.45595253 -198.87344582 82.53131885 -204.45263672 87.73754883 C-206.41825096 89.53188548 -208.37711222 91.24017978 -210.43310547 92.92114258 C-212.70130394 94.83104047 -214.57734972 96.61680232 -216.46435547 98.87817383 C-218.96745106 101.82234353 -221.53685493 104.67973129 -224.18188477 107.49731445 C-240.53670373 124.99541044 -253.8731239 145.31207369 -265.27685547 166.31567383 C-265.72770508 167.14341309 -266.17855469 167.97115234 -266.64306641 168.82397461 C-281.04526368 195.59938678 -290.65987909 224.2404305 -296.52685547 254.00317383 C-296.77346924 255.24953613 -297.02008301 256.49589844 -297.27416992 257.7800293 C-300.62778747 275.52601383 -301.65526898 292.89288491 -301.58935547 310.94067383 C-301.58720032 312.00315338 -301.58504517 313.06563293 -301.58282471 314.16030884 C-301.53308798 329.43365414 -301.16302967 344.27772873 -298.27685547 359.31567383 C-297.97086426 360.99935059 -297.97086426 360.99935059 -297.65869141 362.71704102 C-288.52438743 412.45711549 -268.78241615 459.52519059 -237.27685547 499.31567383 C-236.49697266 500.30825195 -235.71708984 501.30083008 -234.91357422 502.32348633 C-230.13657677 508.27988457 -225.06121044 513.91226418 -219.85498047 519.49145508 C-218.06064382 521.45706932 -216.35234951 523.41593058 -214.67138672 525.47192383 C-212.76148883 527.7401223 -210.97572697 529.61616808 -208.71435547 531.50317383 C-205.77018576 534.00626942 -202.91279801 536.57567329 -200.09521484 539.22070312 C-182.59711886 555.57552209 -162.28045561 568.91194226 -141.27685547 580.31567383 C-140.44911621 580.76652344 -139.62137695 581.21737305 -138.76855469 581.68188477 C-111.99314252 596.08408203 -83.3520988 605.69869745 -53.58935547 611.56567383 C-52.34299316 611.8122876 -51.09663086 612.05890137 -49.8125 612.31298828 C-32.06651547 615.66660583 -14.69964438 616.69408734 3.34814453 616.62817383 C4.41062408 616.62601868 5.47310364 616.62386353 6.56777954 616.62164307 C21.84112484 616.57190633 36.68519943 616.20184803 51.72314453 613.31567383 C52.8455957 613.11167969 53.96804688 612.90768555 55.12451172 612.69750977 C104.8645862 603.56320579 151.93266129 583.82123451 191.72314453 552.31567383 C192.71572266 551.53579102 193.70830078 550.7559082 194.73095703 549.95239258 C200.68735527 545.17539513 206.31973489 540.1000288 211.89892578 534.89379883 C213.86454002 533.09946218 215.82340128 531.39116787 217.87939453 529.71020508 C220.147593 527.80030719 222.02363878 526.01454533 223.91064453 523.75317383 C226.41374012 520.80900412 228.983144 517.95161637 231.62817383 515.1340332 C247.98299279 497.63593722 261.31941296 477.31927397 272.72314453 456.31567383 C273.17399414 455.48793457 273.62484375 454.66019531 274.08935547 453.80737305 C288.49155274 427.03196088 298.10616815 398.39091716 303.97314453 368.62817383 C304.2197583 367.38181152 304.46637207 366.13544922 304.72045898 364.85131836 C308.07407653 347.10533383 309.10155804 329.73846274 309.03564453 311.69067383 C309.03348938 310.62819427 309.03133423 309.56571472 309.02911377 308.47103882 C308.97937704 293.19769352 308.60931874 278.35361893 305.72314453 263.31567383 C305.41715332 261.63199707 305.41715332 261.63199707 305.10498047 259.91430664 C295.9706765 210.17423216 276.22870521 163.10615707 244.72314453 123.31567383 C243.55332031 121.82680664 243.55332031 121.82680664 242.35986328 120.30786133 C237.58286583 114.35146308 232.50749951 108.71908347 227.30126953 103.13989258 C225.50693288 101.17427834 223.79863858 99.21541708 222.11767578 97.15942383 C220.20777789 94.89122535 218.42201604 93.01517958 216.16064453 91.12817383 C213.21647483 88.62507824 210.35908707 86.05567436 207.54150391 83.41064453 C190.04340792 67.05582557 169.72674467 53.7194054 148.72314453 42.31567383 C147.89540527 41.86482422 147.06766602 41.41397461 146.21484375 40.94946289 C119.43943158 26.54726562 90.79838786 16.93265021 61.03564453 11.06567383 C59.78928223 10.81906006 58.54291992 10.57244629 57.25878906 10.31835938 C39.51280453 6.96474182 22.14593345 5.93726032 4.09814453 6.00317383 C2.5044252 6.00640656 2.5044252 6.00640656 0.87850952 6.00970459 C-14.39483578 6.05944132 -29.23891037 6.42949962 -44.27685547 9.31567383 Z " fill="#FFFFFF" transform="translate(364.27685546875,56.684326171875)"/>
<path d="M0 0 C1.02434618 0.9750461 2.02257622 1.97792234 3 3 C5.00731883 4.74426293 7.03288914 6.46534365 9.0625 8.18359375 C11.00218605 10.00204943 12.54075019 11.77920419 14 14 C14 14.66 14 15.32 14 16 C14.66 16 15.32 16 16 16 C24.62174972 33.29930365 26.32523165 49.23888209 25.83984375 68.34375 C26.01277324 72.29160379 26.7734319 75.26738493 28 79 C28.53625 79.103125 29.0725 79.20625 29.625 79.3125 C32.62502044 80.18092697 35.2379535 81.55620296 38 83 C38 83.66 38 84.32 38 85 C38.53625 85.103125 39.0725 85.20625 39.625 85.3125 C42.63362604 86.18341806 45.2252006 87.55479198 48 89 C48.78375 89.391875 49.5675 89.78375 50.375 90.1875 C50.91125 90.455625 51.4475 90.72375 52 91 C51.67 91.99 51.34 92.98 51 94 C48.9375 94.6875 48.9375 94.6875 47 95 C47 95.66 47 96.32 47 97 C45.13671875 98.47265625 45.13671875 98.47265625 42.6875 100.0625 C41.88699219 100.58972656 41.08648437 101.11695313 40.26171875 101.66015625 C38 103 38 103 35 104 C34.505 105.485 34.505 105.485 34 107 C33.34 107 32.68 107 32 107 C31.505 108.485 31.505 108.485 31 110 C29.33583835 111.33645859 27.66876985 112.6692999 26 114 C20.51362855 120.49157991 15.82698711 127.41477406 12 135 C11.37791453 136.19547406 10.75548867 137.39077101 10.1328125 138.5859375 C-0.13409079 158.4917089 -6.85644775 179.52475097 -13 201 C-13.66 201 -14.32 201 -15 201 C-15.24121582 200.24082275 -15.48243164 199.48164551 -15.73095703 198.69946289 C-21.36071431 180.92151802 -21.36071431 180.92151802 -27.3125 163.25 C-27.74175781 162.01765625 -28.17101562 160.7853125 -28.61328125 159.515625 C-29.93479638 156.16530494 -31.4298953 153.01199377 -33.08520508 149.81860352 C-34.20512868 147.59220615 -35.12383831 145.29307874 -36.078125 142.9921875 C-37.7397686 139.40134751 -39.7406189 135.98851353 -41.6953125 132.55078125 C-42.83654716 130.31956498 -43.53035737 128.44557807 -44 126 C-44.66 126 -45.32 126 -46 126 C-47.33203125 124.2421875 -47.33203125 124.2421875 -48.8125 121.875 C-52.02458371 116.90018742 -55.00546289 112.32969141 -60 109 C-60 108.34 -60 107.68 -60 107 C-61.485 106.505 -61.485 106.505 -63 106 C-63 105.34 -63 104.68 -63 104 C-63.99 104 -64.98 104 -66 104 C-67.68816933 102.35511706 -69.35353315 100.68662458 -71 99 C-73.16620544 97.70480005 -73.16620544 97.70480005 -75 97 C-75 96.34 -75 95.68 -75 95 C-76.65 94.34 -78.3 93.68 -80 93 C-80 92.34 -80 91.68 -80 91 C-78.2335343 89.9923048 -76.46166177 88.99408286 -74.6875 88 C-73.70136719 87.443125 -72.71523438 86.88625 -71.69921875 86.3125 C-69 85 -69 85 -66 85 C-66 84.34 -66 83.68 -66 83 C-59.375 79 -59.375 79 -56 79 C-56 78.01 -56 77.02 -56 76 C-55.34 76 -54.68 76 -54 76 C-54.01047363 75.3922876 -54.02094727 74.7845752 -54.03173828 74.15844727 C-54.4046795 49.09821375 -54.07506315 26.46708579 -36.1484375 7.09375 C-30.92164179 2 -30.92164179 2 -28 2 C-28 1.34 -28 0.68 -28 0 C-19.24704685 -4.8853692 -8.85749403 -4.42874702 0 0 Z " fill="#FBFBFB" transform="translate(382,294)"/>
<path d="M0 0 C3.86919245 1.37048319 6.79618696 3.15186403 10.0625 5.625 C19.91657344 13.42545399 19.91657344 13.42545399 31 19 C31 19.66 31 20.32 31 21 C31.8559375 21.24878906 32.711875 21.49757813 33.59375 21.75390625 C37.26424522 23.09666769 40.21016914 24.83435813 43.5 26.9375 C47.58110059 29.5367724 51.63700842 31.90392422 56 34 C46.57680014 41.66595979 34.58828236 42.06941339 23 41 C14.5925288 39.75609409 6.70324516 35.55261331 1.296875 28.90625 C-2.87726151 22.4771202 -3.66340036 16.59593411 -3 9 C-2.21553128 5.90317289 -1.20061701 2.95866334 0 0 Z " fill="#F3F3F3" transform="translate(269,262)"/>
<path d="M0 0 C3 1 3 1 3.94921875 2.75 C6.48854004 10.48888394 7.38033144 16.59736337 3.9375 24.1875 C1.37237062 28.86722612 -1.64967666 31.96489069 -6 35 C-6.78375 35.556875 -7.5675 36.11375 -8.375 36.6875 C-19.47063369 42.23531684 -31.96503513 42.96242753 -43.8125 39.1875 C-47.34401259 37.88746504 -50.08022938 36.37529125 -53 34 C-50 32 -50 32 -47 32 C-47 31.34 -47 30.68 -47 30 C-46.20335937 29.61328125 -45.40671875 29.2265625 -44.5859375 28.828125 C-39.15135091 26.15711164 -33.96000279 23.49454742 -29 20 C-27.5898895 19.07327965 -26.17283745 18.15705888 -24.75 17.25 C-24.08484375 16.82203125 -23.4196875 16.3940625 -22.734375 15.953125 C-21 15 -21 15 -19 15 C-19 14.34 -19 13.68 -19 13 C-18.46632813 12.731875 -17.93265625 12.46375 -17.3828125 12.1875 C-11.70929903 9.20350676 -6.99231193 5.69170089 -2.1640625 1.4765625 C-1.44992187 0.98929687 -0.73578125 0.50203125 0 0 Z " fill="#F3F3F3" transform="translate(464,262)"/>
<path d="M0 0 C2.89932357 2.39509338 3.50168276 4.31245243 4 8 C1.11562221 6.70700306 -0.87219421 5.34058637 -3 3 C-2.01 2.01 -1.02 1.02 0 0 Z " fill="#B1B0B5" transform="translate(574,519)"/>
<path d="M0 0 C1.70884005 1.62339805 3.37446717 3.29319053 5 5 C5 5.66 5 6.32 5 7 C4.01 7.33 3.02 7.66 2 8 C-0.1519437 4.77208445 -0.20086443 3.71599191 0 0 Z " fill="#BEBDC1" transform="translate(206,143)"/>
<path d="M0 0 C0.6875 1.75 0.6875 1.75 1 4 C-0.4375 6.25 -0.4375 6.25 -2 8 C-2.6875 5.6875 -2.6875 5.6875 -3 3 C-1.5625 1.1875 -1.5625 1.1875 0 0 Z " fill="#B6B5BA" transform="translate(529,143)"/>
<path d="" fill="#67666B" transform="translate(0,0)"/>
<path d="" fill="#747378" transform="translate(0,0)"/>
<path d="" fill="#4A494E" transform="translate(0,0)"/>
<path d="" fill="#56555A" transform="translate(0,0)"/>
</svg>
